<svg id="图层_1" data-name="图层 1" xmlns="http://www.w3.org/2000/svg" viewBox="0 0 330.93 55.14"><defs><style>.cls-1{font-size:36px;font-family:MicrosoftYaHeiLight, Microsoft YaHei;}.cls-2{letter-spacing:-0.02em;}.cls-3{fill:#fff;}</style></defs><text class="cls-1" transform="translate(58.89 40.61)">Spirited <tspan class="cls-2" x="133.51" y="0">A</tspan><tspan x="157.18" y="0">wayCN</tspan></text><path class="cls-3" d="M28.62,59.14H7V4H60.14V24.51a.83.83,0,0,1-.09-.16,2.55,2.55,0,0,0-3.8-1.44q-8.76,4.82-17.57,9.54a5.34,5.34,0,0,0-3,5c0,6.24,0,12.47,0,18.71a3.11,3.11,0,0,0,.57,1.91A2.85,2.85,0,0,0,38,59.14H29.42c1.73-.72,2.16-1.38,2.16-3.28V37.39a5.26,5.26,0,0,0-3-5c-3.82-2-7.63-4.11-11.44-6.17l-6.23-3.38a2.48,2.48,0,0,0-1.84-.3,2.67,2.67,0,0,0-2,2.73q0,9.52,0,19A5.17,5.17,0,0,0,10,49.16l12.41,6.71C24.46,57,26.55,58.05,28.62,59.14Zm4.9-30.57a6.44,6.44,0,0,0,3.21-.82q5.9-3.09,11.8-6.14l6.25-3.26A2.08,2.08,0,0,0,56,16.47a2.11,2.11,0,0,0-1.28-2.11q-9-4.69-18-9.42a6.33,6.33,0,0,0-6.21,0L15.31,12.83c-1.05.54-2.12,1.06-3.13,1.66a2.19,2.19,0,0,0-.43,3.38,4.13,4.13,0,0,0,1,.65l17.45,9.09A6.81,6.81,0,0,0,33.52,28.57Z" transform="translate(-7 -4)"/><path d="M28.62,59.14c-2.07-1.09-4.16-2.16-6.23-3.27L10,49.16a5.17,5.17,0,0,1-2.89-4.83q0-9.51,0-19a2.67,2.67,0,0,1,2-2.73,2.48,2.48,0,0,1,1.84.3l6.23,3.38c3.81,2.06,7.62,4.13,11.44,6.17a5.26,5.26,0,0,1,3,5V55.86c0,1.9-.43,2.56-2.16,3.28Z" transform="translate(-7 -4)"/><path d="M38,59.14a2.85,2.85,0,0,1-1.72-1.06,3.11,3.11,0,0,1-.57-1.91c0-6.24,0-12.47,0-18.71a5.34,5.34,0,0,1,3-5q8.81-4.73,17.57-9.54a2.55,2.55,0,0,1,3.8,1.44.83.83,0,0,0,.09.16V45.26a.61.61,0,0,0-.07.14,5.44,5.44,0,0,1-3,3.78c-4.93,2.65-9.82,5.34-14.74,8-1.3.69-2.63,1.32-3.94,2Z" transform="translate(-7 -4)"/><path class="cls-3" d="M38.44,59.14c1.31-.65,2.64-1.28,3.94-2,4.92-2.65,9.81-5.34,14.74-8a5.44,5.44,0,0,0,3-3.78.61.61,0,0,1,.07-.14V59.14Z" transform="translate(-7 -4)"/><path d="M33.52,28.57a6.81,6.81,0,0,1-3.33-1L12.74,18.52a4.13,4.13,0,0,1-1-.65,2.19,2.19,0,0,1,.43-3.38c1-.6,2.08-1.12,3.13-1.66L30.5,4.92a6.33,6.33,0,0,1,6.21,0q9,4.72,18,9.42A2.11,2.11,0,0,1,56,16.47a2.08,2.08,0,0,1-1.25,1.88l-6.25,3.26q-5.91,3.06-11.8,6.14A6.44,6.44,0,0,1,33.52,28.57Z" transform="translate(-7 -4)"/></svg>