<svg id="图层_1" data-name="图层 1" xmlns="http://www.w3.org/2000/svg" viewBox="0 0 665 690"><defs><style>.cls-1{fill:#fff;}</style></defs><path class="cls-1" d="M26.55,291.19v-259h331a10.8,10.8,0,0,1-2.36.61c-12.77.34-24.41,4.36-35.64,10.24Q249.86,79.47,180,115.62q-42.74,22.22-85.47,44.47c-14,7.24-19.51,18.85-15.93,33.48,2.45,10,10,15.16,18.54,19.59Q208.64,271,320,329c26.08,13.62,51.83,13.56,77.85,0q73.89-38.62,147.91-77c26.28-13.68,52.58-27.3,78.82-41.06,9.51-5,15.11-12.41,15.45-23.75.37-12.62-5.58-20.65-16.29-26.23q-107.36-56-214.65-112.06C397,42.56,385.3,35.33,371.37,33.62c-3.61-.45-7.21-.95-10.82-1.43h331v256a9.44,9.44,0,0,1-1.21-2c-5.78-18.46-26.33-29.7-47.53-18Q533,328.54,422.62,387.76C397.26,401.39,385,422.37,385,450.52c-.22,78.13-.08,156.26-.06,234.39,0,8.67,1.79,16.82,7.08,24,5.44,7.36,13,11.16,21.58,13.3h-107c21.59-9,27.05-17.32,27.05-41.05q0-115.7,0-231.38c0-28.17-12.22-49-37.29-62.39-48-25.68-95.76-51.67-143.63-77.54-26-14.08-52-28.26-78.14-42.27-14.95-8-30.53-5.25-40.21,7.69C30.84,279.9,29.09,285.84,26.55,291.19Z" transform="translate(-26.55 -32.19)"/><path d="M26.55,291.19c2.54-5.35,4.29-11.29,7.76-15.94,9.68-12.94,25.26-15.71,40.21-7.69,26.09,14,52.09,28.19,78.14,42.27,47.87,25.87,95.67,51.86,143.63,77.54,25.07,13.42,37.28,34.22,37.29,62.39q.06,115.68,0,231.38c0,23.73-5.46,32-27.05,41.05h-10c-3.49-1.49-7.13-2.71-10.45-4.5Q173.32,656.84,60.6,595.84c-16-8.68-26.3-22.09-31.26-39.59-1-3.66-1.86-7.37-2.79-11.06Z" transform="translate(-26.55 -32.19)"/><path d="M413.55,722.19c-8.6-2.14-16.14-5.94-21.58-13.3-5.29-7.16-7.08-15.31-7.08-24,0-78.13-.16-156.26.06-234.39.08-28.15,12.31-49.13,37.67-62.76Q533,328.42,642.81,268.15c21.2-11.66,41.75-.42,47.53,18a9.44,9.44,0,0,0,1.21,2v260a7.54,7.54,0,0,0-.89,1.74c-4.74,21.76-17.47,37-37,47.46-61.69,33.14-123.09,66.83-184.73,100.05C452.7,706.17,436,714,419.55,722.19Z" transform="translate(-26.55 -32.19)"/><path d="M360.55,32.19c3.61.48,7.21,1,10.82,1.43,13.93,1.71,25.64,8.94,37.71,15.24q107.34,56,214.65,112.06c10.71,5.58,16.66,13.61,16.29,26.23-.34,11.34-5.94,18.77-15.45,23.75C598.33,224.66,572,238.28,545.75,252q-74,38.47-147.91,77c-26,13.6-51.77,13.66-77.85,0Q208.68,270.89,97.17,213.16c-8.54-4.43-16.09-9.55-18.54-19.59-3.58-14.63,2-26.24,15.93-33.48q42.73-22.23,85.47-44.47Q249.8,79.35,319.55,43c11.23-5.88,22.87-9.9,35.64-10.24a10.8,10.8,0,0,0,2.36-.61Z" transform="translate(-26.55 -32.19)"/><path class="cls-1" d="M419.55,722.19c16.46-8.22,33.15-16,49.34-24.75,61.64-33.22,123-66.91,184.73-100.05,19.57-10.51,32.3-25.7,37-47.46a7.54,7.54,0,0,1,.89-1.74v174Z" transform="translate(-26.55 -32.19)"/><path class="cls-1" d="M26.55,545.19c.93,3.69,1.75,7.4,2.79,11.06,5,17.5,15.23,30.91,31.26,39.59q112.7,61,225.5,121.85c3.32,1.79,7,3,10.45,4.5h-270Z" transform="translate(-26.55 -32.19)"/></svg>